<?xml version="1.0" encoding="utf-8"?>
<!-- Generator: Adobe Illustrator 21.1.0, SVG Export Plug-In . SVG Version: 6.00 Build 0)  -->
<svg version="1.1" id="Layer_1" xmlns="http://www.w3.org/2000/svg" xmlns:xlink="http://www.w3.org/1999/xlink" x="0px" y="0px"
	 viewBox="0 0 171.8 83.6" style="enable-background:new 0 0 171.8 83.6;" xml:space="preserve">
<path d="M41.4,41.9l-2,0c0.1-8.1-6.2-26.7-12-32.7c-3.1-3.2-6.3-5-9.5-5.2l0.2-2c3.7,0.3,7.3,2.2,10.8,5.8
	C35.1,14.2,41.6,33.3,41.4,41.9z"/>
<circle cx="18" cy="2.9" r="2.9"/>
<g>
	<path style="fill:#F15735;" d="M169.2,44.3c-8.3,1.9-17.1,1.8-25.7,1.6c-11.7-0.2-23.4-0.4-35.1-0.6c-0.7,0-1.4-0.1-1.8-0.5
		c-0.5-0.5-0.5-1.3-0.5-2c0.6-7.1,5.8-13.3,12.1-16.7c6.4-3.3,13.7-4.2,20.9-4.3c5.7-0.1,11.4,0.3,17.1,0.2
		c-8-6.3-19.1-8.1-29.2-6.3c-10.6,1.8-20.4,7.1-29.4,13c-7.2,4.8-14.3,10.1-22.7,12.5c-8,2.3-40.4-0.5-49.2,1.2
		c-6.9,1.3-13.9,3.4-19.1,8.1s-8,12.6-5.2,19c3.1,6.9,11.3,9.7,18.8,11.1c20.6,3.9,132.2,4.5,142.8-4.5c2.7-2.3,5.2-5,6.7-8.2
		c2.9-6.2,2-13.6,0.4-20.3C169.8,46.5,169.5,45.4,169.2,44.3z"/>
	<path d="M80.4,83.6c-26.7,0-51.6-1.1-60.3-2.7C9.9,79,3.7,75.3,1.2,69.6c-3.1-6.8,0.3-14.8,5.2-19.3c5.6-5.1,13.3-7.1,19.3-8.2
		c4-0.8,13-0.6,22.5-0.4c11,0.2,22.3,0.5,26.6-0.8c7-2,13.2-6.2,19.3-10.3c1.1-0.7,2.2-1.5,3.3-2.2c7.7-5,17.9-11.1,29.5-13.1
		c11-1.9,22,0.5,29.4,6.4l0.5,0.4l-0.7,0c-3,0.1-6.1,0-9.1-0.1c-2.6-0.1-5.3-0.1-8-0.1c-5.6,0.1-13.8,0.6-20.8,4.3
		c-6.9,3.6-11.5,9.9-12,16.5c0,0.6,0,1.4,0.4,1.8c0.4,0.4,1,0.4,1.7,0.4l35.1,0.6c8,0.1,17.2,0.3,25.7-1.6l0.2-0.1l0.1,0.2
		c0.3,1.1,0.6,2.2,0.9,3.4c1.4,6.1,2.7,13.9-0.4,20.4c-1.4,2.9-3.6,5.6-6.8,8.3c-6.6,5.6-49.6,6.8-67.8,7.1
		C90.3,83.5,85.3,83.6,80.4,83.6z M36.1,42.1c-4.5,0-8.2,0.1-10.4,0.5c-5.9,1.1-13.5,3-19,8.1c-4.8,4.3-8.1,12.2-5.1,18.7
		c2.5,5.5,8.6,9.1,18.6,11c21.1,3.9,132.2,4.3,142.6-4.4c3.1-2.7,5.3-5.3,6.6-8.1c3-6.4,1.8-14.1,0.3-20.1c-0.3-1.1-0.5-2.1-0.8-3.1
		c-8.5,1.9-17.6,1.7-25.6,1.5l-35.1-0.6c-0.7,0-1.5-0.1-2-0.6c-0.6-0.6-0.6-1.5-0.6-2.2c0.5-6.7,5.2-13.2,12.3-16.9
		c7.1-3.7,15.4-4.2,21-4.3c2.7,0,5.4,0,8,0.1c2.8,0.1,5.6,0.1,8.4,0.1c-7.3-5.5-17.9-7.7-28.4-5.8c-11.5,2-21.7,8-29.3,13
		c-1.1,0.7-2.2,1.5-3.3,2.2c-6.1,4.1-12.3,8.3-19.4,10.4c-4.3,1.3-15.7,1-26.7,0.8C43.9,42.2,39.7,42.1,36.1,42.1z"/>
</g>
<path style="fill:#A6DBDB;" d="M139,21.8c-7.2,0.1-14.5,1-20.9,4.3c-6.4,3.3-11.6,9.5-12.1,16.7c-0.1,0.7,0,1.5,0.5,2
	c0.5,0.5,1.2,0.5,1.8,0.5c11.7,0.2,23.4,0.4,35.1,0.6c8.6,0.2,17.4,0.3,25.7-1.6c-2.2-8-5.6-15.8-11.8-21.3c-0.4-0.4-0.8-0.7-1.3-1
	C150.4,22.1,144.7,21.7,139,21.8z"/>
<path style="fill:#FFFFFF;" d="M134.6,28.7c-0.5-0.8-1-1.6-1.5-2.3c-0.5-0.7-1.1-1.5-1.7-2.2c-0.6-0.7-1.2-1.3-1.9-1.9
	c-0.9,0.1-1.8,0.3-2.7,0.5c0,0.3,0.1,0.6,0.1,0.9c0.1,0.9,0.3,1.8,0.5,2.6c0.2,0.9,0.3,1.7,0.6,2.5c0.2,0.8,0.4,1.6,0.6,2.4
	c0.9,3.2,2,6.2,2.9,9.4c0.5,1.7,1,3.3,1.4,5c2,0,4.1,0.1,6.1,0.1c-0.1-2.3-0.4-4.6-0.9-6.8C137.5,35.4,136.4,31.9,134.6,28.7z"/>
<path style="fill:#FFFFFF;" d="M144,28.3c-0.6-1.5-1.2-2.9-2-4.3c-0.4-0.7-0.8-1.5-1.2-2.2c-0.6,0-1.1,0-1.7,0c0,0.2,0,0.4,0,0.6
	c0.1,0.8,0.1,1.6,0.2,2.4c0.2,1.6,0.4,3.1,0.7,4.7c0.5,3.1,1.2,6.1,2,9.1c0.6,2.5,1.3,4.9,2.1,7.4c1.4,0,2.8,0,4.1,0
	c-0.3-2.9-0.8-5.8-1.5-8.6C146.1,34.3,145.2,31.3,144,28.3z"/>
<path d="M150.3,46.2c-2.4,0-4.7,0-6.9-0.1l-35.1-0.6c-0.7,0-1.5-0.1-2-0.6c-0.6-0.6-0.6-1.5-0.6-2.2c0.5-6.7,5.2-13.2,12.3-16.9
	c7.1-3.7,15.4-4.2,21-4.3l0,0c2.7,0,5.4,0,8,0.1c3,0.1,6.1,0.1,9.1,0.1l0.1,0l0.1,0.1c0.5,0.4,0.9,0.7,1.3,1.1
	c5.3,4.7,9.2,11.7,11.9,21.4l0.1,0.3l-0.3,0.1C163,45.9,156.5,46.2,150.3,46.2z M139,22c-5.6,0.1-13.8,0.6-20.8,4.3
	c-6.9,3.6-11.5,9.9-12,16.5c0,0.6,0,1.4,0.4,1.8c0.4,0.4,1,0.4,1.7,0.4l35.1,0.6c8,0.1,17,0.3,25.4-1.5c-2.6-9.4-6.5-16.3-11.6-20.9
	c-0.4-0.3-0.7-0.6-1.2-1c-3,0.1-6.1,0-9-0.1C144.4,22.1,141.7,22,139,22L139,22z"/>
<path style="fill:#6C6063;" d="M31.1,49.4c5.4,0.4,10.8,0.7,16.2,1c5.4,0.3,10.8,0.5,16.3,0.6c5.4,0.1,10.8-0.1,16.3-0.4
	c5.4-0.3,10.8-0.7,16.2-1.2l0,0.5c-1.3,0.5-2.7,0.8-4,1.2l-2,0.5l-2,0.4c-2.7,0.5-5.4,0.9-8.1,1.2c-5.4,0.6-10.9,0.6-16.4,0.5
	c-2.7-0.1-5.5-0.3-8.2-0.5c-2.7-0.2-5.4-0.5-8.1-0.8c-5.4-0.6-10.8-1.4-16.2-2.5L31.1,49.4z"/>
<g>
	<circle style="fill:#F7F6C5;" cx="148.3" cy="55.7" r="2.6"/>
	<path d="M148.3,58.6c-1.6,0-2.8-1.3-2.8-2.8c0-1.6,1.3-2.8,2.8-2.8s2.8,1.3,2.8,2.8C151.1,57.3,149.9,58.6,148.3,58.6z M148.3,53.4
		c-1.3,0-2.3,1-2.3,2.3s1,2.3,2.3,2.3s2.3-1,2.3-2.3S149.6,53.4,148.3,53.4z"/>
</g>
<g>
	<circle style="fill:#F7F6C5;" cx="157.6" cy="55.2" r="2.6"/>
	<path d="M157.6,58.1c-1.6,0-2.8-1.3-2.8-2.8c0-1.6,1.3-2.8,2.8-2.8s2.8,1.3,2.8,2.8C160.4,56.8,159.2,58.1,157.6,58.1z M157.6,52.9
		c-1.3,0-2.3,1-2.3,2.3s1,2.3,2.3,2.3s2.3-1,2.3-2.3S158.9,52.9,157.6,52.9z"/>
</g>
<g>
	<circle style="fill:#F7F6C5;" cx="166.6" cy="54.7" r="2.6"/>
	<path d="M166.6,57.5c-1.6,0-2.8-1.3-2.8-2.8c0-1.6,1.3-2.8,2.8-2.8s2.8,1.3,2.8,2.8C169.4,56.2,168.1,57.5,166.6,57.5z M166.6,52.3
		c-1.3,0-2.3,1-2.3,2.3s1,2.3,2.3,2.3s2.3-1,2.3-2.3S167.9,52.3,166.6,52.3z"/>
</g>
</svg>
